<svg width="256px" height="256px" viewBox="-5.28 -5.28 34.56 34.56" fill="none" xmlns="http://www.w3.org/2000/svg"
	stroke="#ffff">
	<g id="SVGRepo_bgCarrier" stroke-width="0" transform="translate(0,0), scale(1)">
		<rect x="-5.28" y="-5.28" width="34.56" height="34.56" rx="17.28" fill="#000" strokewidth="0"></rect>
	</g>
	<g id="SVGRepo_tracerCarrier" stroke-linecap="round" stroke-linejoin="round" stroke="#CCCCCC" stroke-width="4.8">
		<path
			d="M15.8571 12C15.8571 14.1303 14.1302 15.8572 12 15.8572C9.86972 15.8572 8.14282 14.1303 8.14282 12C8.14282 9.86979 9.86972 8.14288 12 8.14288C14.1302 8.14288 15.8571 9.86979 15.8571 12ZM15.8571 12L15.8571 13.2857C15.8571 14.7059 17.0084 15.8571 18.4286 15.8571C19.3408 15.8571 20.1422 15.3821 20.5986 14.6658C20.8528 14.2671 21 13.7936 21 13.2857V12C21 9.3345 19.8412 6.93964 18 5.29168M12 3C7.02944 3 3 7.02944 3 12C3 16.9706 7.02944 21 12 21C13.9122 21 15.6851 20.4037 17.1429 19.3868"
			stroke="#fffff" stroke-width="1.5" stroke-linecap="round" stroke-linejoin="round"></path>
	</g>
	<g id="SVGRepo_iconCarrier">
		<path
			d="M15.8571 12C15.8571 14.1303 14.1302 15.8572 12 15.8572C9.86972 15.8572 8.14282 14.1303 8.14282 12C8.14282 9.86979 9.86972 8.14288 12 8.14288C14.1302 8.14288 15.8571 9.86979 15.8571 12ZM15.8571 12L15.8571 13.2857C15.8571 14.7059 17.0084 15.8571 18.4286 15.8571C19.3408 15.8571 20.1422 15.3821 20.5986 14.6658C20.8528 14.2671 21 13.7936 21 13.2857V12C21 9.3345 19.8412 6.93964 18 5.29168M12 3C7.02944 3 3 7.02944 3 12C3 16.9706 7.02944 21 12 21C13.9122 21 15.6851 20.4037 17.1429 19.3868"
			stroke="#fffff" stroke-width="2.4" stroke-linecap="round" stroke-linejoin="round"></path>
	</g>
</svg>